<?xml version="1.0" encoding="utf-8"?>
<!-- Generator: Adobe Illustrator 26.2.1, SVG Export Plug-In . SVG Version: 6.00 Build 0)  -->
<svg version="1.1" id="Layer_1" xmlns="http://www.w3.org/2000/svg" xmlns:xlink="http://www.w3.org/1999/xlink" x="0px" y="0px"
	 viewBox="0 0 66.4 42" style="enable-background:new 0 0 66.4 42;" xml:space="preserve">
<style type="text/css">
	.st0{fill:#FFFFFF;}
</style>
<path class="st0" d="M6.3,18.9l2.1-1.1l3.4-5.1l1-0.4l1.1,5.1l-1.4,0.2l-1.1-2.1l-0.8,3.3h3.6l3.8,1l1.5-1l2.5,2.7l1.1-4.9l1.8,1.8
	l1.1-1.6l1.8-0.5l2.6-2.5l0.4-1.2l2.1,0.4l0.9,1.2l-1.6,3.4l3.9-2v-1l1.5-0.4l1.7,1.7l1.7-2v-1.4l2.7-1.9L44.8,9h1.7l3-6.3L52.2,0
	l1,1.6l-1.5,2l0.6,1.3l1.4,0.3l1.2,5.2v4.4l2.1,2.9l1,4l-3.6-2.3l-1.6-6.7l-1,0.2l-0.1,4.5L49,21.6l-0.8,6.6l1.8,0.4l0.8-0.9l1.7,2
	l1.3,5.9l-0.1,3.8H52L51.4,34l-1.2,1.6L47.7,35l-2.1-1.8l-2.3,0.8l0.1,3.8l-1.9,0.5l-2.8,2.1l-3.3-0.4l-1.3-0.8l-2.1,0.4l0.7,0.8
	l-1.7,1l-1.3-0.6L27.4,42l-3.8-1.9l-1.4-3.4l-1.2,0.1l-1.4-1.2l-0.1-0.9l-4.6-0.5L14,36.8l-2.9-1.3L9.7,33H6.6l-0.3,3.9l-1.8,0.6
	l-0.9,3.6l-0.7-0.6L0,32.9l3.4-1.7l-0.6-3.3l-0.6-3.4l1.5-2.2L3.4,21l2.1-2.3L6.3,18.9z M52,27.2l3.2,4.8l1-0.4l-1.3-2L52,26.5V27.2
	z M19.7,17.5v-1.4l2.4-1.8l2.1-1.1h-2.4l-2.1,1.3l-1.3,1.2v1.8H19.7z"/>
</svg>
