<?xml version="1.0" encoding="utf-8"?>
<!-- Generator: Adobe Illustrator 26.2.1, SVG Export Plug-In . SVG Version: 6.00 Build 0)  -->
<svg version="1.1" id="Layer_1" xmlns="http://www.w3.org/2000/svg" xmlns:xlink="http://www.w3.org/1999/xlink" x="0px" y="0px"
	 viewBox="0 0 700 700" style="enable-background:new 0 0 700 700;" xml:space="preserve">
<path d="M630,296.8c0.5,3.9-0.8,7.8-3.6,10.6c-2.8,2.8-6.7,4.1-10.6,3.6h-51c-8.1,0-9.4,1.4-9.4,9.6v171.8l0,0
	c0.8,10.2-2.9,20.2-10.1,27.5c-7.2,7.3-17.1,11.1-27.3,10.5h-95.2c-12.8,0-16.3-3.7-16.3-16.8v-88c-0.1-18.2-8.9-35.2-23.7-45.6
	c-14.8-10.5-33.8-13.1-50.9-7c-17.1,6.1-30.2,20-35.2,37.5c-1.8,6.2-2.6,12.6-2.6,19.1V514c0,12.7-3.9,16.8-16.8,16.8l-93.7,0
	c-24.3,0-39.2-14.6-38.9-38.8v-83.2v-88c0-7.8-1.5-9.2-9.2-9.2H87.5c-13.6,0-17.5-3.8-17.5-16.8v-34v0c-0.5-9.2,3.5-18.1,10.8-23.9
	C152,177.6,223.2,118.3,294.3,59l19.6-16.3c10.1-8.6,23-13.3,36.3-13.3s26.1,4.7,36.3,13.3l232.6,194c6.9,5.4,10.9,13.6,10.9,22.4
	C630,271.9,630,284.4,630,296.8L630,296.8z"/>
<path d="M540.4,151.2l-43.7-36.3c-16.8-13.9-33.6-28-50.4-41.8c-2.9-1.9-4.5-5.2-4.1-8.7c0.3-3.8,0-7.7,0-11.5
	c-0.3-4.9,1.4-9.8,4.8-13.4c3.4-3.6,8.1-5.6,13.1-5.6c20.8-0.3,41.7-0.3,62.5,0c4.6-0.1,9,1.6,12.4,4.8c3.3,3.1,5.3,7.5,5.5,12
	C540.7,84,540.4,116.9,540.4,151.2L540.4,151.2z"/>
</svg>
