<?xml version="1.0" encoding="utf-8"?>
<!-- Generator: Adobe Illustrator 26.2.1, SVG Export Plug-In . SVG Version: 6.00 Build 0)  -->
<svg version="1.1" id="Layer_1" xmlns="http://www.w3.org/2000/svg" xmlns:xlink="http://www.w3.org/1999/xlink" x="0px" y="0px"
	 viewBox="0 0 700 500" style="enable-background:new 0 0 700 500;" xml:space="preserve">
<style type="text/css">
	.st0{fill:#FFFFFF;}
</style>
<g>
	<path class="st0" d="M350,5.1c-65,0-127.3,25.8-173.2,71.8c-46,45.9-71.8,108.2-71.8,173.2s25.8,127.3,71.8,173.2
		c45.9,46,108.2,71.8,173.2,71.8s127.3-25.8,173.2-71.8c46-45.9,71.8-108.2,71.8-173.2c0-43-11.3-85.3-32.8-122.5
		s-52.4-68.2-89.7-89.7S393,5.1,350,5.1L350,5.1z M540.8,162.6h-83.4c-12.2-43.1-33.4-83.2-62.1-117.5c31.7,7.1,61.3,21.4,86.5,41.7
		C507.1,107.2,527.3,133.1,540.8,162.6L540.8,162.6z M349,451.9c-32.1-32-56.1-71.1-69.9-114.3h141.8c-13.9,43.1-37.9,82.3-70,114.3
		C350.3,452.3,349.6,452.3,349,451.9L349,451.9z M270.3,302.6c-6.4-34.7-6.4-70.3,0-105h159.4c6.4,34.7,6.4,70.3,0,105H270.3z
		 M140,250.1c0-17.7,2.2-35.4,6.6-52.5h88.1c-5.7,34.8-5.7,70.2,0,105h-88.1C142.2,285.5,140,267.8,140,250.1L140,250.1z M350,48
		c0.3-0.1,0.7-0.1,1,0c32.1,32.1,56.1,71.4,69.9,114.6H279.1c13.9-43.1,37.9-82.3,70-114.3C349.4,48.1,349.7,48,350,48L350,48z
		 M465.2,197.6h88.1c8.9,34.4,8.9,70.6,0,105h-88.1C471,267.8,471,232.4,465.2,197.6L465.2,197.6z M304.7,45.1
		c-28.7,34.4-49.9,74.4-62.1,117.5h-83.4c13.6-29.5,33.8-55.4,59-75.8S273,52.2,304.7,45.1L304.7,45.1z M159.2,337.6h83.4
		c12.2,43.1,33.4,83.2,62.1,117.5c-31.7-7.1-61.3-21.4-86.5-41.7C192.9,393,172.7,367.1,159.2,337.6L159.2,337.6z M395.4,455.1
		c28.7-34.4,49.8-74.4,62-117.5h83.4c-13.6,29.5-33.8,55.4-59,75.8C456.6,433.8,427,448,395.4,455.1L395.4,455.1z"/>
</g>
</svg>
