<?xml version="1.0" encoding="utf-8"?>
<!-- Generator: Adobe Illustrator 26.2.1, SVG Export Plug-In . SVG Version: 6.00 Build 0)  -->
<svg version="1.1" id="Layer_1" xmlns="http://www.w3.org/2000/svg" xmlns:xlink="http://www.w3.org/1999/xlink" x="0px" y="0px"
	 viewBox="0 0 700 700" style="enable-background:new 0 0 700 700;" xml:space="preserve">
<path d="M332.1,520.8c19.3,0,37.8-7.7,51.5-21.3c13.7-13.7,21.3-32.2,21.3-51.5v-61.9c0-10-5.3-19.2-14-24.2s-19.3-5-28,0
	c-8.7,5-14,14.2-14,24.2V448c0,4.5-1.8,8.7-4.9,11.9c-3.2,3.2-7.4,4.9-11.9,4.9H180.9c-4.5,0-8.7-1.8-11.9-4.9
	c-3.1-3.1-4.9-7.4-4.9-11.9V112c0-4.5,1.8-8.7,4.9-11.9c3.2-3.2,7.4-4.9,11.9-4.9h151.2c4.5,0,8.7,1.8,11.9,4.9
	c3.1,3.1,4.9,7.4,4.9,11.9v62.7c0,10,5.3,19.2,14,24.2s19.3,5,28,0c8.7-5,14-14.2,14-24.2V112c0-19.3-7.7-37.8-21.3-51.5
	c-13.7-13.7-32.2-21.3-51.5-21.3H180.9c-19.3,0-37.8,7.7-51.5,21.3c-13.7,13.7-21.3,32.2-21.3,51.5v336c0,19.3,7.7,37.8,21.3,51.5
	c13.7,13.7,32.2,21.3,51.5,21.3L332.1,520.8z"/>
<path d="M582.5,259.2L464.9,141.6v0c-7.1-6.9-17.3-9.5-26.9-6.9c-9.5,2.6-17,10.1-19.6,19.6s0,19.7,6.9,26.9l70.8,70.8H259.3
	c-10,0-19.2,5.3-24.2,14s-5,19.3,0,28s14.2,14,24.2,14h236.8l-71,71c-5.4,5.2-8.5,12.4-8.5,19.9c-0.1,7.5,2.9,14.7,8.2,20
	c5.3,5.3,12.5,8.3,20,8.2c7.5-0.1,14.7-3.1,19.9-8.5L582.3,301c6-5.3,9.4-12.8,9.4-20.8c0-8-3.4-15.5-9.4-20.8L582.5,259.2z"/>
</svg>
